<svg width="140" height="140" viewBox="0 0 140 140" fill="none" xmlns="http://www.w3.org/2000/svg">
<path d="M7.89517 56.4325C5.4507 51.0103 7.86457 44.6332 13.2867 42.1887L84.4645 10.0994C89.8866 7.65495 96.2638 10.0688 98.7083 15.4909L130.798 86.6688C133.242 92.0909 130.828 98.468 125.406 100.913L54.2282 133.002C48.8061 135.446 42.4289 133.032 39.9845 127.61L7.89517 56.4325Z" fill="#06132D"/>
<path d="M7.89517 56.4325C7.085 54.6354 6.8085 52.7335 6.99831 50.9045L21.7091 47.8853C21.0471 45.7181 20.5927 43.468 20.5927 41.523C20.5927 40.6107 20.6441 39.7109 20.744 38.8268C22.0151 27.5738 31.1431 18.8462 42.2157 18.8462C47.054 18.8462 51.5205 20.5124 55.1224 23.3278C55.9378 23.9651 56.7088 24.6613 57.4298 25.4104C60.2791 28.2763 65.4235 28.2763 80.3865 28.2763C90.8223 28.2763 100.371 31.8761 108.233 37.8221C108.551 38.0626 108.847 38.3273 109.13 38.6067C109.589 39.0611 110.013 39.5546 110.436 40.0475C110.602 40.2401 110.767 40.4327 110.935 40.6227C115.196 45.462 125.852 50.1102 136.545 51.1538V64.6154C134.916 72.0259 131.84 76.7242 128.11 80.7071C126.231 82.7132 124.025 84.5379 121.43 86.4361C119.83 87.4513 117.897 87.7748 116.023 87.4939C109.032 86.4456 103.509 86.1538 99.9185 86.1538C68.8505 86.1538 46.1584 103.358 44.4705 132.542C42.5569 131.454 40.9585 129.771 39.9845 127.61L7.89517 56.4325Z" fill="#53B18A"/>
<mask id="mask0_68_1110" style="mask-type:alpha" maskUnits="userSpaceOnUse" x="6" y="9" width="126" height="125">
<path d="M7.89517 56.4325C5.4507 51.0104 7.86457 44.6332 13.2867 42.1888L84.4645 10.0995C89.8866 7.65498 96.2638 10.0689 98.7083 15.491L130.798 86.6688C133.242 92.0909 130.828 98.4681 125.406 100.913L54.2282 133.002C48.8061 135.446 42.4289 133.032 39.9845 127.61L7.89517 56.4325Z" fill="#031E3D"/>
</mask>
<g mask="url(#mask0_68_1110)">
<path d="M26.6602 98.0469L44.3716 137.323C44.3705 136.725 44.3699 136.224 44.3699 136.074C44.3699 105.186 66.9775 86.6716 98.5814 86.1645C71.4359 86.4082 46.5026 90.811 26.6602 98.0469Z" fill="#66C0EE"/>
<path d="M97.1975 86.1984C70.3186 86.8351 46.3781 94.259 30.0967 105.665L44.3728 137.322C44.3717 136.725 44.3711 136.224 44.3711 136.074C44.3711 105.639 66.3202 87.2174 97.1975 86.1984Z" fill="#1F60E0"/>
<path d="M87.4629 87.1403C64.4387 90.551 45.3455 102.523 35.9321 118.608L44.3715 137.323C44.3704 136.725 44.3698 136.224 44.3698 136.074C44.3698 108.946 61.8077 91.3631 87.4629 87.1403Z" fill="#4321B1"/>
</g>
<path d="M20.9037 48.0614C30.9871 46.5143 44.3957 45.4343 59.4544 45.0665C54.8493 42.0771 53.3701 36.9682 51.9341 32.0082C50.2551 26.2091 48.6351 20.6136 42.1472 18.8465C29.4749 18.5941 20.4409 28.8165 20.4409 43.0842C20.4409 44.7281 20.6042 46.413 20.9037 48.0614Z" fill="#4321B1"/>
<path d="M136.6 64.6154C136.6 64.6154 140.045 63.9503 138.918 53.6981C138.75 52.1674 137.792 50.9621 136.6 50.7818C136.085 50.704 135.581 50.6491 135.136 50.649C132.68 50.649 131.646 50.8736 130.254 52.2362L126.49 55.9032C126.138 56.246 126.153 56.8162 126.522 57.1402C131.181 61.2293 135.271 64.6154 136.6 64.6154Z" fill="#4321B1"/>
<path fill-rule="evenodd" clip-rule="evenodd" d="M101.451 51.3936C103.538 51.292 105.174 49.7913 105.247 47.9822L105.244 47.9845C105.328 45.8898 103.319 44.2708 100.947 44.3862C98.9769 44.4821 98.7513 44.5184 92.5181 46.0085C92.1398 46.0987 92.0356 46.5324 92.3435 46.7434C99.2561 51.5004 99.3636 51.4951 101.451 51.3936Z" fill="white"/>
</svg>
